# xmcd
#
# Track frame offsets:
#	150
#	14672
#	27425
#	41502
#	55025
#	74037
#	88840
#	110462
#	130102
#	149642
#	165962
#	185255
#	202092
#	215242
#	226925
#	241805
#
# Disc length: 3466 seconds
#
# Revision: 0
# Processed by: cddbd v1.5.2PL0 Copyright (c) Steve Scherf et al.
# Submitted via: SynApp - FreeCDDB Version: 2.5
#
DISCID=eb0d8810
DTITLE=The Nashville Voices - New Country Hits
DYEAR=1995
DGENRE=Country
TTITLE0=The Nashvill Voices - Summertime Blues
TTITLE1=The Nashvill Voices - Be my Baby tonight
TTITLE2=The Nashvill Voices - Rock Bottom
TTITLE3=The Nashvill Voices - Thinkin problem
TTITLE4=The Nashvill Voices - My Love
TTITLE5=The Nashvill Voices - The Heart wont lie
TTITLE6=The Nashvill Voices - Come on come on
TTITLE7=The Nashvill Voices - One Night a Day
TTITLE8=The Nashvill Voices - I Swear
TTITLE9=The Nashvill Voices - No doubt about it
TTITLE10=The Nashvill Voices - Foolish pride
TTITLE11=The Nashvill Voices - I take my chances
TTITLE12=The Nashvill Voices - Indian Outlaw
TTITLE13=The Nashvill Voices - Maverick
TTITLE14=The Nashvill Voices - The Man in love with you
TTITLE15=The Nashvill Voices - Standing Kneedeep in a River
EXTD=
EXTT0=
EXTT1=
EXTT2=
EXTT3=
EXTT4=
EXTT5=
EXTT6=
EXTT7=
EXTT8=
EXTT9=
EXTT10=
EXTT11=
EXTT12=
EXTT13=
EXTT14=
EXTT15=
PLAYORDER=
